<svg version="1.1" id="Layer_1" xmlns="http://www.w3.org/2000/svg" xmlns:xlink="http://www.w3.org/1999/xlink" x="0px" y="0px"
	 width="100%" viewBox="0 0 144 144" enable-background="new 0 0 144 144" xml:space="preserve">
<path fill="#000000" opacity="1.000000" stroke="none" 
	d="
M54.463181,145.000000 
	C51.942089,143.930649 49.945148,142.717819 47.817101,141.813507 
	C17.365606,128.873062 0.014863,97.977341 4.769779,65.079361 
	C9.271982,33.929836 34.706726,9.007832 66.256432,4.832218 
	C99.620621,0.416456 131.778290,20.065472 143.090485,51.770321 
	C143.535538,53.017670 144.065063,54.234879 144.777618,55.733063 
	C145.000000,60.356899 145.000000,64.713799 145.000000,69.535355 
	C142.593964,64.195999 142.271103,57.873116 140.165512,51.924515 
	C131.252090,26.742733 105.961220,8.491191 78.990662,7.159250 
	C44.629642,5.462330 14.571908,29.906069 8.193053,62.289654 
	C0.671208,100.475868 25.726061,137.100632 64.133797,143.686157 
	C64.935974,143.823685 65.702675,144.168076 66.742966,144.707977 
	C62.975456,145.000000 58.950912,145.000000 54.463181,145.000000 
z"/>
<path fill="#000000" opacity="1.000000" stroke="none" 
	d="
M1.000000,45.458069 
	C3.978996,40.041088 6.682417,34.889496 9.989321,30.159851 
	C19.424847,16.664837 32.378681,7.625676 47.736782,1.224052 
	C52.024544,1.000000 56.049088,1.000000 60.536816,1.000000 
	C56.033989,2.788524 50.979076,4.364861 46.117172,6.401868 
	C23.653971,15.813351 9.496490,32.856537 1.235837,55.723858 
	C1.000000,52.638714 1.000000,49.277424 1.000000,45.458069 
z"/>
<path fill="#000000" opacity="1.000000" stroke="none" 
	d="
M102.539368,1.000000 
	C109.129364,4.285667 115.677841,6.742795 121.467125,10.715278 
	C130.785431,17.109283 138.226181,25.261593 144.747604,34.785706 
	C145.000000,37.370556 145.000000,39.741116 145.000000,42.555836 
	C140.982620,37.323437 137.755783,31.098783 132.983505,25.943180 
	C122.794472,14.935729 110.564400,7.285803 96.093781,3.245301 
	C94.505447,2.801805 92.970596,2.166746 91.205475,1.310268 
	C94.692909,1.000000 98.385818,1.000000 102.539368,1.000000 
z"/>
<path fill="#000000" opacity="1.000000" stroke="none" 
	d="
M35.444164,145.000000 
	C23.043444,136.543945 12.076716,127.133896 5.038655,113.933510 
	C3.878645,111.757828 2.701599,109.591225 1.266213,107.210213 
	C1.000000,103.307091 1.000000,99.614182 1.000000,95.460632 
	C3.485170,100.962082 5.637289,107.056122 8.933682,112.674355 
	C16.465002,125.510422 26.918427,135.246109 39.854286,142.441483 
	C40.859554,143.000656 41.774677,143.721863 42.865845,144.683884 
	C40.629444,145.000000 38.258884,145.000000 35.444164,145.000000 
z"/>
<path fill="#000000" opacity="1.000000" stroke="none" 
	d="
M145.000000,95.535355 
	C140.855560,106.207115 136.051041,116.005608 128.533844,124.274818 
	C119.935379,133.733475 109.198334,139.835953 97.262688,144.774063 
	C92.975456,145.000000 88.950912,145.000000 84.463181,145.000000 
	C84.811317,144.048370 85.898804,143.807190 87.088631,143.639984 
	C115.139305,139.697769 140.630264,114.871674 143.822617,84.468712 
	C143.888855,83.838020 144.273560,83.240784 144.754852,82.313965 
	C145.000000,86.356903 145.000000,90.713799 145.000000,95.535355 
z"/>
<path fill="#000000" opacity="1.000000" stroke="none" 
	d="
M107.449982,145.000000 
	C112.214722,141.853989 117.695503,139.155533 122.553001,135.410797 
	C131.750671,128.320145 138.697388,119.366898 144.713135,109.188309 
	C145.000000,111.370560 145.000000,113.741112 145.000000,116.555832 
	C137.263229,128.013550 127.826775,137.266312 116.237602,144.767563 
	C113.299988,145.000000 110.599968,145.000000 107.449982,145.000000 
z"/>
<path fill="#000000" opacity="1.000000" stroke="none" 
	d="
M42.940395,68.047607 
	C42.899075,65.390625 42.734371,63.218819 42.843433,61.060841 
	C43.020283,57.561577 41.675877,55.264362 38.152248,54.478809 
	C36.804768,54.178402 35.327045,53.916252 35.765480,52.055889 
	C36.116638,50.565880 37.568069,50.666050 38.669258,50.799797 
	C45.582726,51.639488 52.716347,50.638329 59.424374,52.947018 
	C61.769691,53.754204 63.239681,52.530960 65.014900,51.804878 
	C72.394554,48.786526 81.388138,51.733200 84.514618,58.214504 
	C86.779564,62.909813 85.151939,68.960617 81.097969,70.916130 
	C76.813187,72.982979 70.854034,70.966545 68.466713,66.767128 
	C67.210854,64.558022 67.788498,62.219368 67.619095,59.927704 
	C67.472542,57.945114 67.531143,55.311661 64.917587,55.420246 
	C62.433941,55.523438 63.033455,58.195278 63.015549,59.884270 
	C62.863651,74.211311 62.794018,88.539276 62.721394,102.867073 
	C62.703671,106.363670 63.797180,109.091156 67.714226,109.823479 
	C69.000237,110.063904 70.273949,110.474205 70.622711,112.031754 
	C66.883308,113.808975 40.094521,113.910973 35.944130,112.205658 
	C35.944130,111.896416 35.848976,111.328995 35.957722,111.286774 
	C42.985909,108.558212 43.006523,102.730995 42.871918,96.529472 
	C42.669506,87.204201 42.895859,77.869621 42.940395,68.047607 
z"/>
<path fill="#000000" opacity="1.000000" stroke="none" 
	d="
M107.028214,50.293831 
	C108.225311,53.639446 109.034172,56.643661 109.329071,59.847691 
	C110.110657,68.339180 107.037041,74.439468 99.029625,77.842789 
	C97.676888,78.417747 96.443436,79.273369 94.253868,80.506927 
	C101.990067,90.685966 101.886078,105.539558 115.427574,111.658615 
	C114.593872,114.056938 112.635544,113.324654 111.150055,113.351479 
	C106.152634,113.441727 101.141212,113.143593 96.155960,113.399437 
	C92.141655,113.605438 89.513336,111.941055 87.506660,108.695396 
	C82.666595,100.866936 79.369957,92.296455 75.527901,83.987778 
	C74.378166,81.501442 75.302925,80.398178 77.880737,79.840233 
	C88.679886,77.502846 91.844429,73.376289 91.683723,62.167553 
	C91.466530,47.019089 86.606148,42.260593 71.431503,42.205715 
	C61.267311,42.168957 51.102951,42.067657 40.939960,41.911057 
	C39.076416,41.882339 36.866421,42.496140 35.654499,40.255013 
	C35.904335,37.940163 37.634651,38.276031 39.054302,38.270264 
	C55.042973,38.205318 71.046204,37.413589 87.011284,38.771904 
	C95.240082,39.472015 102.844429,41.613209 107.028214,50.293831 
z"/>
</svg>